<svg width="130" height="112" viewBox="0 0 130 112" fill="none" xmlns="http://www.w3.org/2000/svg">
	<path fill-rule="evenodd" clip-rule="evenodd" d="M116.663 74.9089C108.953 95.9696 88.7317 111 65 111C41.2683 111 21.0471 95.9696 13.3367 74.9089C6.11191 74.1122 0.5 68.1889 0.5 61C0.5 54.7383 4.75764 49.4368 10.6302 47.6469C14.6544 21.2354 37.4641 1 65 1C92.5359 1 115.346 21.2354 119.37 47.6469C125.242 49.4368 129.5 54.7383 129.5 61C129.5 68.1889 123.888 74.1122 116.663 74.9089Z" fill="#F4F4F6"/>
	<path d="M116.663 74.9089L116.609 74.4119L116.3 74.4459L116.194 74.737L116.663 74.9089ZM13.3367 74.9089L13.8062 74.737L13.6996 74.4459L13.3915 74.4119L13.3367 74.9089ZM10.6302 47.6469L10.776 48.1252L11.0771 48.0334L11.1245 47.7222L10.6302 47.6469ZM119.37 47.6469L118.875 47.7222L118.923 48.0334L119.224 48.1252L119.37 47.6469ZM65 111.5C88.9482 111.5 109.353 96.3322 117.133 75.0808L116.194 74.737C108.553 95.6069 88.5152 110.5 65 110.5V111.5ZM12.8671 75.0808C20.6474 96.3322 41.0518 111.5 65 111.5V110.5C41.4848 110.5 21.4468 95.6069 13.8062 74.737L12.8671 75.0808ZM0 61C0 68.4604 5.82059 74.5831 13.2819 75.4059L13.3915 74.4119C6.40322 73.6413 1 67.9173 1 61H0ZM10.4845 47.1687C4.41711 49.0179 0 54.5024 0 61H1C1 54.9743 5.09817 49.8557 10.776 48.1252L10.4845 47.1687ZM65 0.5C37.2133 0.5 14.1968 20.9195 10.1359 47.5716L11.1245 47.7222C15.1121 21.5512 37.7149 1.5 65 1.5V0.5ZM119.864 47.5716C115.803 20.9195 92.7867 0.5 65 0.5V1.5C92.2851 1.5 114.888 21.5512 118.875 47.7222L119.864 47.5716ZM119.224 48.1252C124.902 49.8557 129 54.9743 129 61H130C130 54.5024 125.583 49.0179 119.516 47.1687L119.224 48.1252ZM129 61C129 67.9173 123.597 73.6413 116.609 74.4119L116.718 75.4059C124.179 74.5831 130 68.4604 130 61H129Z" fill="#0A0A0A"/>
	<path fill-rule="evenodd" clip-rule="evenodd" d="M18.5 56C37.3187 56 54.097 46.6027 65 31.9327C75.903 46.6027 92.6812 56 111.5 56C114.385 56 117.221 55.7792 119.996 55.3524C119.649 25.2751 95.1597 1 65.0002 1C34.8406 1 10.3509 25.2752 10.0039 55.3525C12.7788 55.7792 15.6154 56 18.5 56Z" fill="#0A0A0A"/>
	<path d="M65 31.9327L65.4013 31.6345L65 31.0945L64.5987 31.6345L65 31.9327ZM119.996 55.3524L120.072 55.8466L120.501 55.7806L120.496 55.3466L119.996 55.3524ZM10.0039 55.3525L9.50394 55.3467L9.49893 55.7807L9.92791 55.8467L10.0039 55.3525ZM64.5987 31.6345C53.7806 46.1901 37.1455 55.5 18.5 55.5V56.5C37.492 56.5 54.4133 47.0153 65.4013 32.231L64.5987 31.6345ZM111.5 55.5C92.8544 55.5 76.2193 46.1901 65.4013 31.6345L64.5987 32.231C75.5866 47.0153 92.508 56.5 111.5 56.5V55.5ZM119.92 54.8582C117.17 55.2811 114.359 55.5 111.5 55.5V56.5C114.41 56.5 117.272 56.2772 120.072 55.8466L119.92 54.8582ZM65.0002 1.5C94.8855 1.5 119.153 25.5545 119.496 55.3582L120.496 55.3466C120.146 24.9958 95.4339 0.5 65.0002 0.5V1.5ZM10.5039 55.3582C10.8477 25.5545 35.1149 1.5 65.0002 1.5V0.5C34.5664 0.5 9.85408 24.9958 9.50394 55.3467L10.5039 55.3582ZM18.5 55.5C15.641 55.5 12.8297 55.2812 10.0799 54.8583L9.92791 55.8467C12.7278 56.2772 15.5898 56.5 18.5 56.5V55.5Z" fill="#0A0A0A"/>
	<circle cx="48.5" cy="62.5" r="3.5" fill="#0A0A0A"/>
	<circle cx="81.5" cy="62.5" r="3.5" fill="#0A0A0A"/>
	<path d="M71.2446 81C69.7785 82.8289 67.5257 84 64.9993 84C62.4729 84 60.22 82.8289 58.7539 81" stroke="#0A0A0A"/>
	<path d="M10.9067 66C15.6093 91.6012 38.0392 111 64.9999 111C91.9606 111 114.39 91.6012 119.093 66" stroke="#0A0A0A"/>
</svg>
